# xmcd
#
# Track frame offsets:
#	150
#	12281
#	27360
#	38950
#	54527
#	68623
#	83123
#	98731
#	112748
#	126777
#	140507
#	153230
#	169455
#	184664
#
# Disc length: 2686 seconds
#
# Revision: 1
# Processed by: cddbd v1.5.2PL0 Copyright (c) Steve Scherf et al.
# Submitted via: audiograbber 1.83.01
#
DISCID=b00a7c0e
DTITLE=Furulunds - Fra morgen til kveld
DYEAR=2003
DGENRE=Danseband
TTITLE0=Tidlig opp - sent i seng
TTITLE1=Nattens regn
TTITLE2=Dine blå øyne
TTITLE3=Ikke ta farvel
TTITLE4=I fra morgen til kveld
TTITLE5=Gran Canaria
TTITLE6=Den eneste for meg
TTITLE7=Min kjære
TTITLE8=Det er bare himmelen
TTITLE9=På tide å ta farvel
TTITLE10=Savner deg
TTITLE11=Can You Forgive Me
TTITLE12=Kjærlighet
TTITLE13=Tro meg på mitt ord
EXTD=
EXTT0=
EXTT1=
EXTT2=
EXTT3=
EXTT4=
EXTT5=
EXTT6=
EXTT7=
EXTT8=
EXTT9=
EXTT10=
EXTT11=
EXTT12=
EXTT13=
PLAYORDER=
